<svg xmlns="http://www.w3.org/2000/svg" width="164.044" height="61.482" viewBox="0 0 164.044 61.482"><g id="Group_558" data-name="Group 558" transform="translate(-0.003)"><path id="Subtraction_33" data-name="Subtraction 33" d="M-14120.83,20656.484a14.4,14.4,0,0,1-10.252-4.248,14.413,14.413,0,0,1-4.246-10.256,14.4,14.4,0,0,1,4.246-10.252,14.4,14.4,0,0,1,10.252-4.246,14.4,14.4,0,0,1,10.252,4.246,14.4,14.4,0,0,1,4.246,10.252,14.408,14.408,0,0,1-4.246,10.256A14.4,14.4,0,0,1-14120.83,20656.484Zm0-23.205a8.709,8.709,0,0,0-8.7,8.7,8.709,8.709,0,0,0,8.7,8.7,8.709,8.709,0,0,0,8.7-8.7A8.71,8.71,0,0,0-14120.83,20633.279Z" transform="translate(14149 -20595)" fill="#fff"></path><path id="Subtraction_32" data-name="Subtraction 32" d="M-14120.83,20656.484a14.4,14.4,0,0,1-10.252-4.248,14.413,14.413,0,0,1-4.246-10.256,14.4,14.4,0,0,1,4.246-10.252,14.4,14.4,0,0,1,10.252-4.246,14.4,14.4,0,0,1,10.252,4.246,14.4,14.4,0,0,1,4.246,10.252,14.408,14.408,0,0,1-4.246,10.256A14.4,14.4,0,0,1-14120.83,20656.484Zm0-23.205a8.709,8.709,0,0,0-8.7,8.7,8.709,8.709,0,0,0,8.7,8.7,8.709,8.709,0,0,0,8.7-8.7A8.71,8.71,0,0,0-14120.83,20633.279Z" transform="translate(14248 -20595)" fill="#fff"></path><path id="Subtraction_31" data-name="Subtraction 31" d="M-13990.584,20674.887v0a25.019,25.019,0,0,0-2.979-8.184,16.663,16.663,0,0,0-14.1-8.678c-.331-.014-.619-.02-.88-.02a14.835,14.835,0,0,0-13.31,7.693,23.029,23.029,0,0,0-2.782,7.7h-65.425a21.34,21.34,0,0,0-2.913-7.9c-2.241-3.6-6.646-7.9-14.91-7.9-8.076,0-12.209,4.123-14.253,7.582a19.418,19.418,0,0,0-2.168,5.529,9.751,9.751,0,0,0-.342,2.678c-4.977-2.93-7.726-5.2-9.194-7.584-1.424-2.311-1.788-4.9-1.258-8.953.264-1.76,3.22-5.633,10.03-8.541,7.8-2.193,21.052-4.367,30.791-5.807,10.664-1.572,19.413-2.617,19.482-2.625.043-.037,7.152-6.262,13.34-11.523,1.109-.129,2.148-.26,3.064-.375l.209-.027a45.629,45.629,0,0,1,4.761-.471c.782,0,1.229.111,1.41.352a.561.561,0,0,1,.057.521c-.661,2.557-15.752,17.67-15.9,17.822h46.107l5.76-5.764c.092.01,2.661.326,6.216.764,9.6,1.182,27.466,3.381,27.511,3.4l.567.113c8.667,1.752,8.667,1.752,9.891,5.625l.048.152.063.2a30.078,30.078,0,0,1,0,9.707,14.426,14.426,0,0,1-4.123,6.322,31.111,31.111,0,0,1-6.365,4.539,48.054,48.054,0,0,1-8.4,3.654Zm-69.823-43.678h0l-11.872,10.045,2.543,2.869,12.3-12.914Z" transform="translate(14135.329 -20627.482)" fill="#fff"></path><path id="Path_222" data-name="Path 222" d="M14916.186-18071.605s-9.358,4.66-8.392,7.77c0-.035,8.08.449,8.392-3.109A15.845,15.845,0,0,0,14916.186-18071.605Z" transform="translate(-14904.673 18095.307)" fill="#ff4605"></path><path id="Rectangle_545" data-name="Rectangle 545" d="M0,0H0A3.954,3.954,0,0,1,3.954,3.954V7.344a0,0,0,0,1,0,0h0A3.954,3.954,0,0,1,0,3.389V0A0,0,0,0,1,0,0Z" transform="matrix(-0.996, 0.087, -0.087, -0.996, 161.709, 27.005)" fill="#ff4605"></path><rect id="Rectangle_546" data-name="Rectangle 546" width="17" height="4" rx="2" transform="translate(143.671 41.482)" fill="#fff"></rect><path id="Path_269" data-name="Path 269" d="M13595.381-20971.379l38.592,26.852-42.614.021Z" transform="translate(-13528.095 20990.256)" fill="#f1efef"></path></g></svg>