<svg xmlns="http://www.w3.org/2000/svg" width="163.558" height="58.459" viewBox="0 0 163.558 58.459"><g id="Group_559" data-name="Group 559" transform="translate(0.002 -0.002)"><path id="Path_240" data-name="Path 240" d="M14682.666-17675.51c6.831-.441,3.493-2,4.658-4.357s6.83-3.8,0-5.064-20.491-1.707-27.321,0-5.665,4.475,0,6.832S14675.836-17675.068,14682.666-17675.51Z" transform="translate(-14527.08 17699.047)" fill="#fff"></path><path id="Subtraction_37" data-name="Subtraction 37" d="M-14351,20677.193c-4.549,0-10.068-.318-10.531-1.832-.166-.545.341-1.217,1.506-2-1-4.67.082-10.6,2.963-16.275a31.61,31.61,0,0,1,4.858-7.084,19.218,19.218,0,0,1,6.015-4.553c2.4-1.07,6.081-1.248,9.639-1.422h.021l.221-.012c.041,0,.081,0,.121-.006l.457-.023.449-.023c.063,0,.123,0,.181-.008l.222-.01c2.574-.145,5.389-.219,8.366-.219,4.87,0,8.565.2,8.971.217.016,0,.023,0,.023,0a49.835,49.835,0,0,1,8.942-8.25,46.131,46.131,0,0,1,10.239-5.662,36.257,36.257,0,0,1,13.245-2.574h1.987c18.48,0,41.806,6.238,58.118,11.471,13.4,4.3,22.219,7.941,22.265,8.033,1.4.955,2.458,2.762,3.146,5.367a34.248,34.248,0,0,1,.944,7.867,80.532,80.532,0,0,1-.675,11.512l-.011.072,0,.01,0,.021a.227.227,0,0,0,0,.031v.012a10.27,10.27,0,0,1-8.112,4.3,7.186,7.186,0,0,1-1.022-.066l-13.479.248a8.889,8.889,0,0,0,1.816-5.418,9.014,9.014,0,0,0-9-9,9.012,9.012,0,0,0-9,9,9.007,9.007,0,0,0,2.02,5.678l-13.386.244v.037h-52.056v-.006h-14.706a9.3,9.3,0,0,0,2.125-5.953,8.771,8.771,0,0,0-8.5-9,8.773,8.773,0,0,0-8.5,9,9.29,9.29,0,0,0,2.126,5.953h-13.165v.006a.117.117,0,0,1-.036,0C-14345.3,20677.084-14348.42,20677.193-14351,20677.193Zm68.726-44.031a51.983,51.983,0,0,0-11.112,1.063c-3.456.809-7.623,3.857-10.51,6.271-3.077,2.586-5.472,5.09-5.48,5.1h38.489s0-.039,0-.115a111.559,111.559,0,0,0,0-11.256A54.193,54.193,0,0,0-14282.279,20633.162Zm18,2.1h0v10.322h18.97l-.006,0a15.92,15.92,0,0,0-6.5-6.5C-14256.434,20636.564-14264.2,20635.27-14264.275,20635.264Z" transform="translate(14361.565 -20627.461)" fill="#fff"></path><path id="Path_270" data-name="Path 270" d="M13596.071-20971.381l45.2,31.449-49.911.025Z" transform="translate(-13543.885 20989.234)" fill="#f1efef"></path><path id="Subtraction_36" data-name="Subtraction 36" d="M-14346.568,20657.461a14.9,14.9,0,0,1-10.605-4.393,14.9,14.9,0,0,1-4.393-10.605,14.9,14.9,0,0,1,4.393-10.607,14.9,14.9,0,0,1,10.605-4.4,14.9,14.9,0,0,1,10.605,4.4,14.9,14.9,0,0,1,4.393,10.607,14.9,14.9,0,0,1-4.393,10.605A14.9,14.9,0,0,1-14346.568,20657.461Zm0-24a9.01,9.01,0,0,0-9,9,9.01,9.01,0,0,0,9,9,9.01,9.01,0,0,0,9-9A9.01,9.01,0,0,0-14346.568,20633.463Z" transform="translate(14479 -20599)" fill="#fff"></path><path id="Subtraction_38" data-name="Subtraction 38" d="M-14346.568,20657.461a14.9,14.9,0,0,1-10.605-4.393,14.9,14.9,0,0,1-4.393-10.605,14.9,14.9,0,0,1,4.393-10.607,14.9,14.9,0,0,1,10.605-4.4,14.9,14.9,0,0,1,10.605,4.4,14.9,14.9,0,0,1,4.393,10.607,14.9,14.9,0,0,1-4.393,10.605A14.9,14.9,0,0,1-14346.568,20657.461Zm0-24a9.01,9.01,0,0,0-9,9,9.01,9.01,0,0,0,9,9,9.01,9.01,0,0,0,9-9A9.01,9.01,0,0,0-14346.568,20633.463Z" transform="translate(14385 -20599)" fill="#fff"></path><path id="Path_234" data-name="Path 234" d="M14672.021-17633.193h-4.091s-1.186,4.4,2.152,6.127h2.729a12.841,12.841,0,0,0,.188-3.463A6.689,6.689,0,0,0,14672.021-17633.193Z" transform="translate(-14512.557 17655.711)" fill="#ff4605"></path><path id="Path_235" data-name="Path 235" d="M14925.816-17637.883a3.027,3.027,0,0,0-.832.637c-.32.391-.746.926-.746.926h6.58l.775-1.562S14928.518-17639.443,14925.816-17637.883Z" transform="translate(-14911.271 17658.619)" fill="#fff"></path><path id="Path_236" data-name="Path 236" d="M0,5.691a26.481,26.481,0,0,0,5.8-.1A3.041,3.041,0,0,0,8.255,4.01C9.178,2.59,10.661,0,10.661,0L2.633.14Z" transform="matrix(-1, -0.017, 0.017, -1, 18.502, 29.281)" fill="#ff4605"></path></g></svg>