<svg xmlns="http://www.w3.org/2000/svg" width="127.603" height="54.465" viewBox="0 0 127.603 54.465"><g id="Group_561" data-name="Group 561" transform="translate(-14684.518 20863.809)"><path id="Subtraction_21" data-name="Subtraction 21" d="M118.832,43.013a1.3,1.3,0,0,1-.035-.273c-.429-4.477-2.738-14.891-14.873-14.891-7.591,0-11.447,4.123-13.345,7.581a20.472,20.472,0,0,0-2.323,7.581H43.1a21.368,21.368,0,0,0-2.078-7.594,13.077,13.077,0,0,0-12.373-7.594c-.332,0-.659.009-1,.026-7.591.391-11.241,4.493-12.966,7.865a18.574,18.574,0,0,0-1.944,7.3H4.2a8.178,8.178,0,0,1-1.972-.8A3.852,3.852,0,0,1,.094,39.3c-.212-2.776,0-9.87,0-9.941A5.384,5.384,0,0,1,.9,27.494a15.4,15.4,0,0,1,4.514-4.4,42.655,42.655,0,0,1,11.361-5.128,114.82,114.82,0,0,1,21.349-4.054,25.375,25.375,0,0,1,2.5-2.211,53.8,53.8,0,0,1,7.1-4.778,54.752,54.752,0,0,1,11.13-4.761A50.642,50.642,0,0,1,73.443,0C84.5,0,95.624,3.663,106.518,10.886a16.257,16.257,0,0,0,1.989.048c2.155,0,5.325-.043,5.679-.048l.007,0a95.794,95.794,0,0,1,7.8,10.484,45.044,45.044,0,0,1,4.6,9.084c1.15,3.326,1.315,6.039.491,8.066-1.075,2.643-3.852,4.153-8.253,4.489h0ZM70.8,5.323h0a37.186,37.186,0,0,0-23.624,9.3l48.494-2.734a43.116,43.116,0,0,0-6.928-3.215,53.066,53.066,0,0,0-17.54-3.353l-.4,0Z" transform="translate(14684.518 -20863.809)" fill="#fff"></path><path id="Path_176" data-name="Path 176" d="M16313.668-17534.393s6.613-5.395,9.764-5.326c4.773.064,4.773,5.326,2.027,5.326Z" transform="translate(-1625.359 -3301.786)" fill="#ff4605"></path><path id="Path_179" data-name="Path 179" d="M16313.665-17531.758s8.018-3.207,11.9-3.131c3.043-4.037,6.029,3.131,2.643,3.131Z" transform="translate(-1524.175 -3320.697)" fill="#fff"></path><path id="Subtraction_20" data-name="Subtraction 20" d="M12,24A12,12,0,0,1,3.514,3.515,12,12,0,1,1,20.485,20.485,11.921,11.921,0,0,1,12,24ZM12,5.333A6.667,6.667,0,1,0,18.666,12,6.674,6.674,0,0,0,12,5.333Z" transform="translate(14700.46 -20833.344)" fill="#fff"></path><path id="Subtraction_19" data-name="Subtraction 19" d="M12,24A12,12,0,0,1,3.514,3.515,12,12,0,1,1,20.485,20.485,11.921,11.921,0,0,1,12,24ZM12,5.333A6.667,6.667,0,1,0,18.666,12,6.674,6.674,0,0,0,12,5.333Z" transform="translate(14775.46 -20833.344)" fill="#fff"></path><path id="Subtraction_6" data-name="Subtraction 6" d="M12.589,7.919H3.959A3.96,3.96,0,0,1,3.959,0H7.9l4.683,7.918Z" transform="translate(14796.028 -20844.098)" fill="#ff4605"></path><path id="Path_265" data-name="Path 265" d="M13595.619-20971.383l40.867,28.436-45.127.021Z" transform="translate(1136.298 122.13)" fill="#f1efef"></path></g></svg>