<svg xmlns="http://www.w3.org/2000/svg" width="148.092" height="64.414" viewBox="0 0 148.092 64.414"><g id="Group_562" data-name="Group 562" transform="translate(-15054.172 20866.895)"><path id="Subtraction_23" data-name="Subtraction 23" d="M13,26A13,13,0,0,1,7.94,1.022,13,13,0,0,1,18.06,24.978,12.919,12.919,0,0,1,13,26ZM13,5.4A7.6,7.6,0,1,0,20.6,13,7.612,7.612,0,0,0,13,5.4Z" transform="translate(15068 -20828.48)" fill="#fff"></path><path id="Subtraction_22" data-name="Subtraction 22" d="M13,26A13,13,0,0,1,7.94,1.022,13,13,0,0,1,18.06,24.978,12.919,12.919,0,0,1,13,26ZM13,5.4A7.6,7.6,0,1,0,20.6,13,7.612,7.612,0,0,0,13,5.4Z" transform="translate(15158 -20828.48)" fill="#fff"></path><path id="Subtraction_24" data-name="Subtraction 24" d="M4.79,55.743a9.09,9.09,0,0,1-2.406-.132.018.018,0,0,1,0-.018c-2.017-2.013-2.759-5.142-2.2-9.3a34.145,34.145,0,0,1,2.03-7.471,3.138,3.138,0,0,0,.176-.5h0c.093-5.967,3.757-10.3,10.89-12.873,6.1-2.2,13.551-2.662,18.731-2.662,1.677,0,4.262.049,7.059.284l.158.012a101.441,101.441,0,0,1,9.812-11.362,60.4,60.4,0,0,1,7.707-6.5,24.215,24.215,0,0,1,6.843-3.64L130.358.049C130.983.017,131.583,0,132.143,0c3.935,0,6.254.81,6.892,2.408a3.332,3.332,0,0,1-.054,2.3,9.35,9.35,0,0,1-1.22,2.317,18.053,18.053,0,0,1-2.12,2.5l.02.044c.981,2.212,5.866,13.261,5.712,13.5a.008.008,0,0,1-.007,0,9.681,9.681,0,0,1,1.435,3.669,31.171,31.171,0,0,1,.582,4.607,54.535,54.535,0,0,1,.036,5.61l.183.2c2.133,2.354,3.257,3.6,3.34,3.692a9.394,9.394,0,0,1,.981,3.186,19.173,19.173,0,0,1,.156,3.377,26.38,26.38,0,0,1-.4,3.769l-15.555,4.4A27.2,27.2,0,0,0,131.953,50c-.378-2.885-1.4-6.963-4.147-10-2.63-2.914-6.364-4.392-11.1-4.392s-8.511,1.481-11.206,4.4a19.131,19.131,0,0,0-4.356,10,26.949,26.949,0,0,0-.286,5.583H43.183a27.626,27.626,0,0,0-.282-5.632c-.438-2.9-1.547-7-4.346-10.038-2.64-2.862-6.317-4.313-10.93-4.313s-8.3,1.452-10.963,4.315c-2.82,3.035-3.959,7.133-4.418,10.037a27.493,27.493,0,0,0-.323,5.631l-.06,0C10.816,55.63,7.216,55.743,4.79,55.743Zm67.9-49.63c-6.185.007-9.75.016-9.779.025a48.793,48.793,0,0,0-8.3,5.62,36.725,36.725,0,0,0-5.083,5.217,21,21,0,0,0-3.245,5.338l29.8-.5ZM97.568,6.1c-7.234,0-14.817,0-20.806.008L80.14,21.741,106.3,21.3,103.011,6.1H97.568Zm9.521,0,3.27,15.129,11.1-.186,6.6-8.088A7.91,7.91,0,0,0,128.3,11.2a5.258,5.258,0,0,0-.889-3.271,5.208,5.208,0,0,0-4.3-1.794c-.74-.018-6.129-.03-16.018-.035Z" transform="translate(15054.172 -20866.895)" fill="#fff"></path><path id="Path_252" data-name="Path 252" d="M18443.912-21087.6s1.129-5.34-.436-5.994-5.883.795-5.883.795-1.25,2.672,0,3.541S18443.912-21087.6,18443.912-21087.6Z" transform="translate(-3247.885 255.873)" fill="#ff7443"></path><path id="Path_254" data-name="Path 254" d="M18644.531-21084.064c-1.186-.162-8.268-1.527-9.451,5.209.07.078,4.029,0,4.029,0S18643.834-21080.219,18644.531-21084.064Z" transform="translate(-3576.694 248.652)" fill="#ff4605"></path><path id="Path_266" data-name="Path 266" d="M13596.393-20971.381l48.289,33.6-53.322.025Z" transform="translate(1507.626 126.604)" fill="#f1efef"></path></g></svg>